<?xml version="1.0" encoding="UTF-8"?>
<svg width="60px" height="60px" viewBox="0 0 60 60" version="1.1" xmlns="http://www.w3.org/2000/svg" xmlns:xlink="http://www.w3.org/1999/xlink">
    <!-- Generator: Sketch 43.2 (39069) - http://www.bohemiancoding.com/sketch -->
    <title>navigation</title>
    <desc>Created with Sketch.</desc>
    <defs></defs>
    <g id="Page-1" stroke="none" stroke-width="1" fill="none" fill-rule="evenodd">
        <g id="navigation" transform="translate(30.000000, 30.000000) rotate(180.000000) translate(-30.000000, -30.000000) " fill-rule="nonzero" fill="#FB4B01">
            <path d="M30,0 C13.458,0 0,13.458 0,30 C0,46.542 13.458,60 30,60 C46.542,60 60,46.542 60,30 C60,13.458 46.542,0 30,0 Z M31.1377314,9.14623865 L43.5764467,46.0381207 C43.7001904,46.4022807 43.6011955,46.7996747 43.3360304,47.0648398 C43.2964325,47.1044378 43.2532989,47.1405002 43.2059228,47.1737342 C42.8452983,47.4297069 42.3588089,47.416979 42.0116194,47.1447429 L30.1612169,37.8526526 L17.0896409,47.1709058 C16.7318449,47.4268785 16.2495981,47.4183932 15.9017015,47.1511068 C15.553805,46.8838205 15.4194547,46.4213726 15.5714827,46.0091294 L29.2532918,9.11724727 C29.3989558,8.72126748 29.7829148,8.45893086 30.2064717,8.46529482 C30.6300287,8.47165878 31.002674,8.74389489 31.1377314,9.14623865 Z" id="Shape"></path>
        </g>
    </g>
</svg>